<svg id="Capa_1" data-name="Capa 1" xmlns="http://www.w3.org/2000/svg" xmlns:xlink="http://www.w3.org/1999/xlink" viewBox="0 0 150 150"><defs><style>.cls-1,.cls-10,.cls-11,.cls-12,.cls-13,.cls-14,.cls-2,.cls-3,.cls-4,.cls-5,.cls-6,.cls-7,.cls-8,.cls-9{stroke:#1d1d1b;stroke-miterlimit:10;stroke-width:0.5px;}.cls-1{fill:url(#Degradado_sin_nombre_76);}.cls-2{fill:url(#Degradado_sin_nombre_76-2);}.cls-3{fill:url(#Degradado_sin_nombre_76-3);}.cls-4{fill:url(#Degradado_sin_nombre_76-4);}.cls-5{fill:url(#Degradado_sin_nombre_76-5);}.cls-6{fill:url(#Degradado_sin_nombre_76-6);}.cls-7{fill:url(#Degradado_sin_nombre_76-7);}.cls-8{fill:url(#Degradado_sin_nombre_76-8);}.cls-9{fill:url(#Degradado_sin_nombre_76-9);}.cls-10{fill:url(#Degradado_sin_nombre_76-10);}.cls-11{fill:url(#Degradado_sin_nombre_76-11);}.cls-12{fill:url(#Degradado_sin_nombre_76-12);}.cls-13{fill:url(#Degradado_sin_nombre_76-13);}.cls-14{fill:url(#Degradado_sin_nombre_76-14);}.cls-15{font-size:16.39px;fill:#fff;font-family:Bauhaus93, "Bauhaus 93";}</style><linearGradient id="Degradado_sin_nombre_76" x1="6.47" y1="11.88" x2="21.36" y2="11.88" gradientUnits="userSpaceOnUse"><stop offset="0" stop-color="#fff"/><stop offset="0.51" stop-color="#25b99c"/><stop offset="1" stop-color="#1cb698"/></linearGradient><linearGradient id="Degradado_sin_nombre_76-2" x1="10.99" y1="31.95" x2="27.34" y2="31.95" xlink:href="#Degradado_sin_nombre_76"/><linearGradient id="Degradado_sin_nombre_76-3" x1="8.95" y1="72.5" x2="29.39" y2="72.5" xlink:href="#Degradado_sin_nombre_76"/><linearGradient id="Degradado_sin_nombre_76-4" x1="7.2" y1="50.83" x2="20.92" y2="50.83" xlink:href="#Degradado_sin_nombre_76"/><linearGradient id="Degradado_sin_nombre_76-5" x1="32.89" y1="54.5" x2="53.33" y2="54.5" xlink:href="#Degradado_sin_nombre_76"/><linearGradient id="Degradado_sin_nombre_76-6" x1="38.44" y1="33.88" x2="56.1" y2="33.88" xlink:href="#Degradado_sin_nombre_76"/><linearGradient id="Degradado_sin_nombre_76-7" x1="14.06" y1="105.23" x2="34.5" y2="105.23" xlink:href="#Degradado_sin_nombre_76"/><linearGradient id="Degradado_sin_nombre_76-8" x1="39.75" y1="84.87" x2="58.65" y2="84.87" xlink:href="#Degradado_sin_nombre_76"/><linearGradient id="Degradado_sin_nombre_76-9" x1="39.75" y1="109.53" x2="58.65" y2="109.53" xlink:href="#Degradado_sin_nombre_76"/><linearGradient id="Degradado_sin_nombre_76-10" x1="62.6" y1="50.39" x2="76.54" y2="50.39" xlink:href="#Degradado_sin_nombre_76"/><linearGradient id="Degradado_sin_nombre_76-11" x1="63.06" y1="74.52" x2="77" y2="74.52" xlink:href="#Degradado_sin_nombre_76"/><linearGradient id="Degradado_sin_nombre_76-12" x1="63.06" y1="98.66" x2="77" y2="98.66" xlink:href="#Degradado_sin_nombre_76"/><linearGradient id="Degradado_sin_nombre_76-13" x1="63.58" y1="124.54" x2="77" y2="124.54" xlink:href="#Degradado_sin_nombre_76"/><linearGradient id="Degradado_sin_nombre_76-14" x1="81.64" y1="80.98" x2="143.83" y2="80.98" xlink:href="#Degradado_sin_nombre_76"/></defs><polygon class="cls-1" points="21.36 18.58 6.47 17.45 6.47 5.18 21.36 6.32 21.36 18.58"/><polygon class="cls-2" points="27.34 39.03 10.99 37.78 10.99 24.88 27.34 26.13 27.34 39.03"/><polygon class="cls-3" points="29.39 82.37 8.95 80.63 8.95 62.63 29.39 64.37 29.39 82.37"/><polygon class="cls-4" points="20.92 56.81 7.2 55.76 7.2 44.85 20.92 45.9 20.92 56.81"/><polygon class="cls-5" points="53.33 67.36 32.89 59.64 32.89 41.64 53.33 49.36 53.33 67.36"/><polygon class="cls-6" points="56.1 44.46 38.44 38.11 38.44 23.31 56.1 29.66 56.1 44.46"/><polygon class="cls-7" points="34.49 115.98 14.06 114.08 14.06 94.48 34.49 96.37 34.49 115.98"/><polygon class="cls-8" points="58.65 98.25 39.75 90.22 39.75 71.48 58.65 79.52 58.65 98.25"/><polygon class="cls-9" points="58.65 123.39 39.75 115.07 39.75 95.67 58.65 103.99 58.65 123.39"/><polygon class="cls-10" points="76.54 64.01 62.59 52.4 62.59 36.77 76.54 48.38 76.54 64.01"/><polygon class="cls-11" points="77 88.14 63.06 76.53 63.06 60.9 77 72.52 77 88.14"/><polygon class="cls-12" points="77 113.71 63.06 100.88 63.06 83.6 77 96.44 77 113.71"/><polygon class="cls-13" points="77 141.79 63.58 127.08 63.58 107.3 77 122 77 141.79"/><path class="cls-14" d="M82.08,50.23c18.86-26.19,50.13-27.54,61.46-28V34l.29,76.47s-37.74,3.34-62,29.31C81.31,140.26,82.08,50.23,82.08,50.23Z"/><text class="cls-15" transform="translate(121.79 106.43) scale(0.92 1)">&lt;/&gt;</text></svg>